<?xml version="1.0" encoding="utf-8"?>
<!-- Generator: Adobe Illustrator 26.2.1, SVG Export Plug-In . SVG Version: 6.00 Build 0)  -->
<svg version="1.1" id="Camada_1" xmlns="http://www.w3.org/2000/svg" xmlns:xlink="http://www.w3.org/1999/xlink" x="0px" y="0px"
	 viewBox="0 0 160 150" style="enable-background:new 0 0 160 150;" xml:space="preserve">
<style type="text/css">
	.st0{fill:#262626;}
</style>
<g>
	<path class="st0" d="M51.35,75.94L54,74.5V51.02l-2.65-1.45V75.94z M28,39.76v84.87l26-14.15V97.02l-2.65-1.44v13.46L30.65,120.3
		V41.2l2.65-1.44l18.04-9.82L54,28.5v-2.89L28,39.76z"/>
	<path class="st0" d="M106,25.37v2.9l2.65,1.47l18.07,10l2.62,1.45v79.09l-20.69-11.35V49.57L106,51.02v59.35l26,14.26V39.76
		L106,25.37z"/>
	<path class="st0" d="M106,25.37L80,39.76L54,25.61L28,39.76l2.65,1.44l20.69,11.26L54,53.91l26,14.14l52-28.29L106,25.37z
		 M54,51.02l-2.65-1.45l-18.04-9.81l18.04-9.82L54,28.5l24.67,13.42c0.41,0.23,0.87,0.34,1.33,0.34c0.47,0,0.93-0.12,1.35-0.35
		L106,28.27l20.73,11.47L80,65.16L54,51.02z"/>
	<path class="st0" d="M54,71.61l-2.65,1.44L30.65,84.32L28,85.76l2.65,1.44l20.69,11.26L54,99.9l26-14.14L54,71.61z M51.35,95.58
		l-18.04-9.82l18.04-9.82L54,74.5l20.69,11.26L54,97.02L51.35,95.58z"/>
</g>
</svg>
